<svg width="29" height="35" viewBox="0 0 29 35" fill="none" xmlns="http://www.w3.org/2000/svg">
<g clip-path="url(#clip0_211_1644)">
<path d="M9.04779 34.8461C6.75449 34.8461 4.97814 32.3009 3.68026 30.4465C1.99206 27.906 0.846267 25.0445 0.314546 22.041C-0.360166 18.9386 0.0579282 15.6984 1.49804 12.8689C2.21246 11.5852 3.24745 10.5087 4.50202 9.74436C5.75659 8.98001 7.18788 8.55396 8.65623 8.50777H8.75522C9.96148 8.58172 11.1424 8.88601 12.2342 9.40419H12.2452H12.2518H12.2584C12.9396 9.741 13.6751 9.95439 14.4307 10.0344C15.1473 9.94736 15.8446 9.7422 16.4942 9.42729H16.5052H16.5151H16.5206C17.7835 8.84148 19.1446 8.49608 20.5341 8.40878C20.6947 8.40878 20.8828 8.41868 21.0929 8.43738C22.3523 8.47803 23.585 8.81126 24.6934 9.41071C25.8018 10.0101 26.7555 10.8593 27.4789 11.8911C26.344 12.5938 25.4039 13.5704 24.7449 14.7312C24.0859 15.892 23.7291 17.1998 23.7073 18.5345C23.696 19.5628 23.8977 20.5823 24.2998 21.5288C24.7019 22.4753 25.2956 23.3283 26.0435 24.034C26.7208 24.6868 27.5128 25.2089 28.3797 25.5739V25.5827C27.8265 27.3435 27.0071 29.0094 25.95 30.5224C24.4102 32.8388 22.9385 34.7592 20.6364 34.7933H20.5066C19.617 34.7751 18.7428 34.5579 17.9482 34.1576H17.9416C16.9906 33.6926 15.9479 33.4454 14.8894 33.4338C13.7841 33.4385 12.694 33.6915 11.6997 34.1741H11.6942H11.6832H11.6777C10.892 34.5598 10.0379 34.7867 9.16438 34.8417H9.04779V34.8461ZM14.4989 8.04471C14.3851 8.04602 14.2713 8.04161 14.158 8.03151C14.0308 6.06691 14.6891 4.13225 15.9882 2.65297C17.3043 1.15454 19.1368 0.207246 21.1204 0C21.2808 2.02365 20.6401 4.02938 19.3363 5.58532C18.748 6.31206 18.0131 6.90668 17.1797 7.33043C16.3462 7.75419 15.4328 7.99757 14.4989 8.04471Z" fill="white"/>
</g>
<defs>
<clipPath id="clip0_211_1644">
<rect width="29" height="35" fill="white"/>
</clipPath>
</defs>
</svg>
