<svg width="33" height="35" viewBox="0 0 33 35" fill="none" xmlns="http://www.w3.org/2000/svg">
<g clip-path="url(#clip0_211_1645)">
<g clip-path="url(#clip1_211_1645)">
<path d="M18.9014 18.246L23.8959 23.2409L2.83205 34.7857C2.68512 34.8688 2.53197 34.9404 2.37397 35L18.9014 18.246ZM0.167846 33.0864C0.155004 31.3685 0.0208657 4.12311 0.0123037 2.07942C-0.0278274 1.71893 0.0306398 1.35431 0.181451 1.02454C0.332263 0.694769 0.569746 0.412257 0.8685 0.207225L18.1794 17.5257L0.944131 34.9957C0.668047 34.7659 0.452784 34.4714 0.317386 34.1384C0.181988 33.8053 0.130627 33.444 0.167846 33.0864ZM19.6178 17.5215L24.822 12.2464L31.9884 16.1609C33.755 17.1256 32.8446 18.3317 31.9884 18.8048L24.8277 22.7307L19.6178 17.5215ZM2.09714 0C2.35416 0.0307251 2.60331 0.108732 2.83205 0.230094L23.8917 11.7376L18.8971 16.7997L2.09714 0Z" fill="white"/>
</g>
</g>
<defs>
<clipPath id="clip0_211_1645">
<rect width="33" height="35" fill="white"/>
</clipPath>
<clipPath id="clip1_211_1645">
<rect width="33" height="35" fill="white"/>
</clipPath>
</defs>
</svg>
